<svg width="95" height="119" viewBox="0 0 95 119" fill="none" xmlns="http://www.w3.org/2000/svg"><g clip-path="url(#clip0_378_1584)"><path d="M95 118.454H0V0H95V118.454ZM1.16543 117.289H93.8346V1.16543H1.16543V117.289Z" fill="white"></path><path d="M10.1313 96.6554C9.30135 94.3731 8.31692 91.8392 7.69889 89.8041C7.30158 89.8483 6.89545 89.8748 6.49814 89.8748C6.10084 89.8748 5.69029 89.8527 5.27091 89.8041C6.15381 91.8922 8.12268 96.885 8.97026 99.2247C9.16009 99.1894 9.35874 99.154 9.57063 99.154C9.78253 99.154 9.96352 99.1894 10.171 99.2247C11.2305 96.0948 13.0095 91.9452 13.9057 89.8041C13.7203 89.8483 13.5084 89.8748 13.3097 89.8748C13.1111 89.8748 12.8992 89.8527 12.7049 89.8041C11.9942 91.9187 11.0671 94.3731 10.1269 96.6554H10.1313Z" fill="white"></path><path d="M9.57063 98.9068C9.72073 98.9068 9.86199 98.9245 10.0077 98.9465C10.97 96.1478 12.4798 92.5632 13.3892 90.4045L13.5128 90.1087C13.2965 90.122 13.0802 90.1131 12.8727 90.0822C12.1708 92.1526 11.279 94.51 10.3564 96.7437L10.1136 97.3264L9.89731 96.7349C9.69865 96.1963 9.49559 95.6445 9.28811 95.0839C8.648 93.3622 7.99024 91.5832 7.51789 90.0646C6.89986 90.1264 6.29949 90.1308 5.65056 90.0822C6.5467 92.2321 8.2816 96.6378 9.12477 98.9465C9.26162 98.9245 9.4073 98.9068 9.5618 98.9068H9.57063Z" fill="white"></path><path d="M23.132 95.4414C23.132 96.9688 23.1011 98.0195 23.026 99.2247C23.3218 99.1893 23.6882 99.154 24.1429 99.154C24.5976 99.154 24.964 99.1893 25.2642 99.2247C25.1803 98.0195 25.1538 96.9688 25.1538 95.4414V93.5829C25.1538 92.0599 25.1847 91.0093 25.2642 89.8085C24.964 89.8394 24.5932 89.8792 24.1429 89.8792C23.6926 89.8792 23.3218 89.8394 23.026 89.8085C23.1011 91.0093 23.132 92.0599 23.132 93.5829V95.4414Z" fill="white"></path><path d="M24.1429 98.9068C24.4696 98.9068 24.7565 98.9245 24.9993 98.9466C24.9331 97.8694 24.9066 96.8585 24.9066 95.437V93.5785C24.9066 92.1615 24.9331 91.1461 24.9993 90.0734C24.7609 90.0955 24.4696 90.1132 24.1429 90.1132C23.8162 90.1132 23.5249 90.0955 23.2865 90.0734C23.3483 91.1726 23.3748 92.1836 23.3748 93.5785V95.437C23.3748 96.832 23.3483 97.8429 23.2865 98.9466C23.5249 98.9245 23.8118 98.9068 24.1429 98.9068Z" fill="white"></path><path d="M35.519 92.5191C35.519 95.3046 35.3116 98.8186 35.2453 99.2203C35.4528 99.1761 35.6691 99.1497 35.8722 99.1497C36.0753 99.1497 36.296 99.1761 36.5123 99.2203C36.477 98.7126 36.4329 97.9445 36.4329 95.7637C36.4329 94.7352 36.4328 93.605 36.4593 92.5853C38.5606 94.797 40.5516 97.0086 42.4233 99.2203C42.5822 99.1761 42.7588 99.1497 42.9531 99.1497C43.1473 99.1497 43.3239 99.1761 43.5137 99.2203C43.5137 95.5916 43.5137 93.7728 43.73 89.7997C43.5225 89.8439 43.3195 89.8704 43.1164 89.8704C42.9133 89.8704 42.7059 89.8483 42.5028 89.7997C42.5955 90.4134 42.5955 94.126 42.5955 96.2979C40.5913 94.126 38.6401 91.9717 36.6801 89.7997C36.4726 89.8439 36.2651 89.8704 36.0664 89.8704C35.8678 89.8704 35.6559 89.8483 35.4528 89.7997C35.4661 90.4575 35.519 91.2874 35.519 92.5191Z" fill="white"></path><path d="M36.2298 91.9893L36.6359 92.4175C38.7151 94.6071 40.6928 96.8011 42.5116 98.951C42.75 98.9024 43.0016 98.898 43.2665 98.9289C43.2665 95.5827 43.2709 93.7551 43.4696 90.0955C43.2356 90.122 43.006 90.122 42.7721 90.0955C42.8383 91.2256 42.8383 94.3423 42.8383 96.2979V96.9247L42.4145 96.4656C40.5163 94.4085 38.6313 92.3248 36.8081 90.3118L36.5874 90.069C36.2872 90.122 35.9958 90.1308 35.7 90.0955C35.7 90.2147 35.7089 90.3427 35.7133 90.4752C35.7354 91.0093 35.7574 91.6759 35.7574 92.5235C35.7574 94.9382 35.6029 97.9004 35.5146 98.9333C35.7618 98.9069 35.9914 98.9069 36.2386 98.9333C36.2077 98.3727 36.1812 97.5163 36.1812 95.7681C36.1812 94.7528 36.1812 93.605 36.2077 92.5809L36.221 91.9893H36.2298Z" fill="white"></path><path d="M60.9907 97.5251C60.3992 98.1431 59.3927 98.5537 58.5186 98.5537C56.9514 98.5537 55.2872 97.4412 55.2872 94.6336C55.2872 91.826 56.9382 90.4751 58.395 90.4751C59.3662 90.4751 60.0592 90.8415 60.7391 91.6891H60.9289C60.9731 91.2256 61.0658 90.7444 61.2379 90.303C60.6155 89.9145 59.4147 89.632 58.4568 89.632C55.5918 89.632 53.0402 91.0755 53.0402 94.8455C53.0402 97.4191 54.9119 99.4012 58.0771 99.4012C59.1984 99.4012 60.1387 99.1805 60.8627 98.8009C60.9024 98.4212 61.0084 98.0239 61.1673 97.6399L60.9863 97.5339L60.9907 97.5251Z" fill="white"></path><path d="M58.4656 89.8748C56.9117 89.8748 53.2918 90.3604 53.2918 94.8455C53.2918 97.4236 55.2165 99.154 58.0816 99.154C59.066 99.154 59.9445 98.9775 60.6375 98.6375C60.664 98.4433 60.7082 98.2446 60.7656 98.046C60.1343 98.5095 59.2867 98.8009 58.5142 98.8009C56.9117 98.8009 55.04 97.7105 55.04 94.6336C55.04 91.5567 56.7793 90.2323 58.395 90.2323C59.3441 90.2323 60.0548 90.5546 60.7347 91.3051C60.7832 90.9872 60.8539 90.6914 60.9421 90.4177C60.3329 90.1087 59.2955 89.8792 58.4612 89.8792L58.4656 89.8748Z" fill="white"></path><path d="M77.8717 97.5251C77.2846 98.1431 76.2737 98.5537 75.3952 98.5537C73.8325 98.5537 72.1682 97.4412 72.1682 94.6336C72.1682 91.826 73.8192 90.4751 75.276 90.4751C76.2428 90.4751 76.9403 90.8415 77.6201 91.6891H77.8055C77.8497 91.2256 77.9424 90.7444 78.1234 90.303C77.4965 89.9145 76.2914 89.632 75.3422 89.632C72.4728 89.632 69.9212 91.0755 69.9212 94.8455C69.9212 97.4191 71.793 99.4012 74.9582 99.4012C76.075 99.4012 77.0197 99.1805 77.7393 98.8009C77.7835 98.4212 77.8938 98.0239 78.0439 97.6399L77.8673 97.5339L77.8717 97.5251Z" fill="white"></path><path d="M75.3511 89.8748C73.7928 89.8748 70.1729 90.3604 70.1729 94.8455C70.1729 97.4236 72.0976 99.154 74.9626 99.154C75.947 99.154 76.8255 98.9775 77.5186 98.6375C77.5495 98.4477 77.5936 98.2491 77.651 98.046C77.0242 98.5095 76.1722 98.8009 75.3952 98.8009C73.7927 98.8009 71.9254 97.7105 71.9254 94.6336C71.9254 91.5567 73.6647 90.2323 75.2804 90.2323C76.2251 90.2323 76.9403 90.5546 77.6157 91.3006C77.6643 90.9784 77.7349 90.687 77.8276 90.4133C77.214 90.1043 76.181 89.8748 75.3511 89.8748Z" fill="white"></path><path d="M87.6057 95.4414C87.6057 96.9688 87.5704 98.0195 87.4954 99.2247C87.7911 99.1893 88.1619 99.154 88.6078 99.154C89.0537 99.154 89.4289 99.1893 89.7291 99.2247C89.6496 98.0195 89.6187 96.9688 89.6187 95.4414V93.5829C89.6187 92.0599 89.6496 91.0093 89.7291 89.8085C89.4289 89.8394 89.0625 89.8792 88.6078 89.8792C88.1531 89.8792 87.7911 89.8394 87.4954 89.8085C87.5704 91.0093 87.6057 92.0599 87.6057 93.5829V95.4414Z" fill="white"></path><path d="M88.6078 98.9068C88.9389 98.9068 89.2214 98.9245 89.4642 98.9466C89.398 97.8562 89.3715 96.8453 89.3715 95.437V93.5785C89.3715 92.1747 89.398 91.1594 89.4642 90.0734C89.2214 90.0955 88.9345 90.1132 88.6078 90.1132C88.2811 90.1132 87.9942 90.0911 87.7558 90.0734C87.822 91.2035 87.8485 92.2145 87.8485 93.5785V95.437C87.8485 96.8011 87.822 97.812 87.7558 98.9466C87.9942 98.9245 88.2811 98.9068 88.6078 98.9068Z" fill="white"></path><path d="M42.4984 76.671L36.4064 17.4726C35.3469 17.5212 32.4377 17.8213 31.652 18.0156C27.8334 18.9691 18.5895 23.5116 21.2337 34.1373C21.865 36.6448 23.6396 39.9336 26.0544 42.9487L18.5586 49.7205C16.3381 47.5044 14.8283 44.7939 13.9542 41.2844C12.1001 33.8636 16.55 25.401 24.0281 18.5321C26.7386 16.4749 29.6831 14.8857 32.7158 14.1308L46.9791 10.5727C47.9988 10.3211 48.8288 10.3211 49.928 10.9038L45.9593 15.0843L45.2839 15.2565L50.2017 65.5862L50.4268 65.5332L66.7825 37.8058C70.8174 30.9942 75.8543 19.5518 76.4547 10.3211C78.2823 11.9236 79.9598 13.6982 81.4696 15.6185C80.0393 19.2605 78.1145 23.5116 75.5806 28.5839C69.1929 41.2623 52.0823 72.1594 50.0516 73.0909L42.5028 76.671H42.4984Z" fill="white"></path><path d="M42.2909 77.0418L42.2556 76.6975L36.1856 17.733C34.9717 17.8081 32.4112 18.0862 31.7093 18.2584C27.0918 19.415 19.0132 24.2047 21.4721 34.0843C22.1034 36.5962 23.8868 39.8585 26.2486 42.803L26.3943 42.984L18.5541 50.0648L18.3908 49.9015C16.1173 47.6324 14.5899 44.8381 13.7203 41.3506C12.8153 37.7219 13.3362 33.7709 15.2742 29.6036C17.0576 25.7718 20.0286 21.8827 23.8648 18.3555L23.8824 18.3422C26.8181 16.1085 29.7714 14.6164 32.6585 13.8968L46.9217 10.3388C47.3808 10.224 47.7649 10.171 48.1313 10.171C48.767 10.171 49.3762 10.3343 50.0428 10.6875L50.3297 10.8376L46.0918 15.3051L45.5532 15.4463L50.4092 65.1006L66.5795 37.6822C70.6496 30.8044 75.6203 19.5121 76.2163 10.3034L76.2472 9.80902L76.6224 10.1357C78.4589 11.747 80.154 13.5393 81.6682 15.464L81.7565 15.5744L81.7035 15.7068C80.2335 19.4459 78.3044 23.6926 75.8058 28.6898C69.7711 40.6619 52.3162 72.3227 50.1619 73.3072L42.2997 77.0374L42.2909 77.0418ZM36.6271 17.221L36.6492 17.4505L42.7059 76.3046L49.9412 72.8701C51.8703 71.9872 68.7867 41.5095 75.3555 28.4779C77.8188 23.5514 79.7258 19.3576 81.1826 15.6671C79.8141 13.9366 78.2911 12.3165 76.6578 10.842C75.9117 20.0418 71.016 31.1399 66.99 37.9426L50.5813 65.7628L49.9809 65.8996L49.9545 65.6215L45.0146 15.0843L45.8225 14.8769L49.513 10.9877C49.0318 10.7714 48.5816 10.6698 48.1224 10.6698C47.8002 10.6698 47.4514 10.7184 47.0321 10.8244L32.7688 14.3824C29.9524 15.0843 27.0609 16.5455 24.1826 18.7351C16.2321 26.0455 12.4974 34.4596 14.1926 41.2402C15.0181 44.5555 16.4484 47.2263 18.5674 49.3982L25.7189 42.9398C23.388 39.9909 21.6266 36.7419 20.9954 34.2124C18.4438 23.9575 26.8092 18.9868 31.5901 17.7904C32.3936 17.5918 35.2895 17.2916 36.3931 17.2386L36.6227 17.2298L36.6271 17.221Z" fill="white"></path><path d="M94.4085 102.809H0.582714V101.644H94.4085V102.809ZM94.4085 87.1775H0.582714V86.0121H94.4085V87.1775Z" fill="white"></path><path d="M11.0627 109.528C10.2725 109.541 9.49558 109.559 8.70539 109.559C7.91519 109.559 7.13383 109.541 6.34363 109.528V109.131C6.34363 108.164 6.38778 107.18 6.43192 106.213C6.2421 106.248 6.0611 106.27 5.88011 106.27C5.69912 106.27 5.51812 106.244 5.32388 106.213C5.37244 107.18 5.41659 108.168 5.41659 109.131V111.073C5.41659 112.044 5.37244 113.024 5.32388 113.996C5.51812 113.969 5.70353 113.938 5.88011 113.938C6.05669 113.938 6.2421 113.969 6.43192 113.996C6.38778 113.024 6.34363 112.044 6.34363 111.073V110.058C7.13383 110.049 7.91519 110.036 8.70539 110.036C9.49558 110.036 10.2725 110.049 11.0627 110.058V111.073C11.0627 112.044 11.023 113.024 10.9744 113.996C11.1643 113.969 11.3453 113.938 11.5307 113.938C11.7161 113.938 11.8927 113.969 12.0869 113.996C12.0339 113.024 11.9942 112.044 11.9942 111.073V109.131C11.9942 108.164 12.0339 107.18 12.0869 106.213C11.8927 106.248 11.7117 106.27 11.5307 106.27C11.3497 106.27 11.1687 106.244 10.9744 106.213C11.023 107.18 11.0627 108.168 11.0627 109.131V109.528Z" fill="white"></path><path d="M5.58434 106.495C5.62407 107.352 5.6638 108.248 5.6638 109.126V111.069C5.6638 111.952 5.62848 112.821 5.58434 113.709C5.77858 113.687 5.98164 113.687 6.17588 113.709C6.13615 112.848 6.10084 111.961 6.10084 111.069V109.811H6.34363C6.61292 109.806 6.8822 109.802 7.14707 109.802C7.31924 109.802 7.49582 109.802 7.66798 109.797C7.32807 109.793 6.99256 109.789 6.66589 109.78L6.10084 109.771V109.131C6.10084 108.244 6.14057 107.33 6.17588 106.5C5.98606 106.522 5.77416 106.522 5.58434 106.5V106.495ZM11.5263 113.691C11.6278 113.691 11.7249 113.7 11.822 113.709C11.7823 112.91 11.7426 111.996 11.7426 111.069V109.126C11.7426 108.199 11.7823 107.259 11.822 106.495C11.6322 106.517 11.4203 106.517 11.2349 106.495C11.2746 107.312 11.3099 108.235 11.3099 109.126V109.766L10.7405 109.775C10.4138 109.78 10.0783 109.789 9.7428 109.793C9.91496 109.793 10.0871 109.793 10.2637 109.797C10.533 109.797 10.7979 109.802 11.0671 109.806H11.3099V111.069C11.3099 111.961 11.2746 112.857 11.2349 113.709C11.332 113.695 11.4291 113.691 11.5307 113.691H11.5263Z" fill="white"></path><path d="M27.0565 110.106C27.0565 112.609 25.7763 113.726 24.0987 113.726C22.4212 113.726 21.1499 112.609 21.1499 110.106C21.1499 107.603 22.4301 106.478 24.0987 106.478C25.7674 106.478 27.0565 107.599 27.0565 110.106ZM20.1169 110.106C20.1169 112.667 21.7546 114.15 24.1032 114.15C26.4517 114.15 28.1071 112.667 28.1071 110.106C28.1071 107.546 26.4649 106.072 24.1032 106.072C21.7414 106.072 20.1169 107.546 20.1169 110.106Z" fill="white"></path><path d="M25.4584 106.504C26.6238 107.029 27.2904 108.296 27.2904 110.106C27.2904 111.916 26.5929 113.241 25.3657 113.74C26.9373 113.298 27.8731 111.987 27.8731 110.106C27.8731 108.226 26.977 106.972 25.4584 106.504ZM22.7435 106.504C21.2382 106.972 20.3464 108.261 20.3464 110.102C20.3464 111.943 21.2735 113.289 22.8362 113.735C21.6178 113.236 20.9203 111.956 20.9203 110.102C20.9203 108.248 21.5825 107.029 22.7435 106.504Z" fill="white"></path><path d="M37.8631 111.073C37.8631 112.044 37.819 113.024 37.7749 113.996C37.9691 113.969 38.1457 113.938 38.3311 113.938C38.5165 113.938 38.6931 113.969 38.8873 113.996C38.8388 113.024 38.799 112.044 38.799 111.073V109.131C38.799 108.358 38.8079 107.581 38.8299 106.8C39.6113 106.8 40.6134 106.849 41.2491 106.924C41.2138 106.813 41.1873 106.69 41.1873 106.575C41.1873 106.451 41.2138 106.332 41.2491 106.213C40.2779 106.248 39.3067 106.27 38.3355 106.27C37.3643 106.27 36.3931 106.244 35.4219 106.213C35.4572 106.332 35.4793 106.451 35.4793 106.562C35.4793 106.685 35.4617 106.813 35.4219 106.924C36.0532 106.849 37.0597 106.8 37.8411 106.8C37.8632 107.581 37.872 108.358 37.872 109.131V111.073H37.8631Z" fill="white"></path><path d="M37.8367 106.553H38.075L38.0839 106.791C38.1059 107.497 38.1148 108.266 38.1148 109.131V111.073C38.1148 111.965 38.0795 112.848 38.0397 113.713C38.234 113.691 38.437 113.691 38.6313 113.713C38.5915 112.865 38.5562 111.969 38.5562 111.073V109.131C38.5562 108.394 38.5651 107.625 38.5871 106.791V106.553H38.8299C39.5186 106.553 40.3353 106.588 40.9445 106.645C40.9445 106.623 40.9445 106.597 40.9445 106.575C40.9445 106.54 40.9445 106.5 40.9489 106.464C39.9468 106.5 39.1125 106.513 38.3355 106.513C37.5585 106.513 36.7242 106.495 35.7221 106.464C35.7221 106.495 35.7221 106.526 35.7221 106.557C35.7221 106.584 35.7221 106.615 35.7221 106.641C36.3313 106.584 37.148 106.548 37.8411 106.548L37.8367 106.553Z" fill="white"></path><path d="M49.129 111.064C49.129 112.031 49.0848 113.016 49.0362 113.996C49.7293 113.969 50.4047 113.938 51.0934 113.938C51.7821 113.938 52.4619 113.969 53.1241 113.996C53.0976 113.894 53.0888 113.775 53.0888 113.669C53.0888 113.563 53.0976 113.417 53.1241 113.32C52.4133 113.453 51.0802 113.466 50.0737 113.466C50.0648 113.183 50.056 112.632 50.056 111.771C50.056 110.689 50.056 110.407 50.0692 110.137C50.6078 110.137 52.0337 110.159 52.8106 110.234C52.7886 110.124 52.7709 110.014 52.7709 109.903C52.7709 109.784 52.7842 109.669 52.8106 109.55C52.1441 109.608 51.398 109.669 50.0692 109.669C50.0692 109.387 50.056 108.764 50.056 108.177C50.056 107.621 50.0869 107.224 50.1001 106.743C51.5702 106.743 52.122 106.818 53.0667 106.888C53.0402 106.778 53.0314 106.663 53.0314 106.548C53.0314 106.434 53.0402 106.323 53.0667 106.213C52.4045 106.248 51.7379 106.27 51.0581 106.27C50.3783 106.27 49.7117 106.244 49.0362 106.213C49.0848 107.171 49.129 108.155 49.129 109.126V111.069V111.064Z" fill="white"></path><path d="M49.2923 106.469C49.3364 107.325 49.3717 108.226 49.3717 109.122V111.064C49.3717 111.947 49.3364 112.835 49.2923 113.74C49.5263 113.731 49.7558 113.722 49.9854 113.713H49.8309V113.475C49.8132 112.985 49.8044 112.411 49.8044 111.775C49.8044 110.694 49.8044 110.407 49.8176 110.129L49.8264 109.912H49.8176V109.665C49.8176 109.55 49.8176 109.378 49.8176 109.175C49.8176 108.879 49.8088 108.517 49.8088 108.173C49.8088 107.798 49.822 107.489 49.8353 107.188C49.8397 107.038 49.8485 106.888 49.8529 106.729L49.8618 106.491H49.9898C49.7691 106.482 49.5395 106.473 49.2923 106.464V106.469ZM51.5393 113.695C51.9807 113.704 52.4178 113.722 52.846 113.74C52.846 113.717 52.846 113.695 52.846 113.669C52.846 113.656 52.846 113.634 52.846 113.612C52.4796 113.656 52.0249 113.682 51.5393 113.695ZM50.8948 109.903C51.4068 109.912 52.0337 109.934 52.5281 109.965C52.5281 109.943 52.5281 109.921 52.5281 109.899C52.5281 109.872 52.5281 109.842 52.5281 109.815C52.0867 109.85 51.5834 109.886 50.8948 109.899V109.903ZM51.2038 106.513C51.7247 106.531 52.1131 106.562 52.5414 106.597C52.6208 106.601 52.7047 106.61 52.7886 106.619C52.7886 106.597 52.7886 106.57 52.7886 106.544C52.7886 106.517 52.7886 106.491 52.7886 106.464C52.197 106.491 51.6849 106.509 51.2038 106.509V106.513Z" fill="white"></path><path d="M61.3306 111.073C61.3306 112.044 61.2865 113.024 61.2423 113.996C61.9398 113.969 62.6241 113.938 63.326 113.938C64.0279 113.938 64.7165 113.969 65.4008 113.996C65.3655 113.885 65.3478 113.775 65.3478 113.656C65.3478 113.545 65.3655 113.435 65.4008 113.325C64.2707 113.47 63.3525 113.47 62.2886 113.47C62.2797 112.362 62.2533 111.033 62.2533 109.131C62.2533 108.164 62.2974 107.18 62.3415 106.213C62.1517 106.248 61.9663 106.27 61.7897 106.27C61.6132 106.27 61.4277 106.244 61.2379 106.213C61.2821 107.18 61.3262 108.168 61.3262 109.131V111.073H61.3306Z" fill="white"></path><path d="M61.4984 106.495C61.5381 107.33 61.5734 108.248 61.5734 109.126V111.069C61.5734 111.961 61.5337 112.861 61.494 113.735C61.7279 113.726 61.9619 113.717 62.2003 113.709H62.0458L62.0325 112.636C62.0237 111.718 62.006 110.579 62.006 109.126C62.006 108.257 62.0414 107.361 62.0811 106.495C61.856 106.522 61.675 106.517 61.494 106.495H61.4984ZM63.7939 113.695C64.2354 113.704 64.6724 113.722 65.105 113.74C65.105 113.713 65.105 113.682 65.105 113.656C65.105 113.638 65.105 113.62 65.105 113.603C64.6459 113.651 64.2177 113.678 63.7939 113.695Z" fill="white"></path><path d="M73.5279 111.064C73.5279 112.031 73.4837 113.016 73.4396 113.996C74.1327 113.969 74.8125 113.938 75.4923 113.938C76.1722 113.938 76.8564 113.969 77.5274 113.996C77.5053 113.894 77.4921 113.775 77.4921 113.669C77.4921 113.563 77.5053 113.417 77.5274 113.32C76.8167 113.453 75.4835 113.466 74.477 113.466C74.4638 113.183 74.4593 112.632 74.4593 111.771C74.4593 110.689 74.4593 110.407 74.4682 110.137C75.0112 110.137 76.4326 110.159 77.2096 110.234C77.1875 110.124 77.1743 110.014 77.1743 109.903C77.1743 109.784 77.1831 109.669 77.2096 109.55C76.5386 109.608 75.8013 109.669 74.4682 109.669C74.4682 109.387 74.4593 108.764 74.4593 108.177C74.4593 107.621 74.4902 107.224 74.5035 106.743C75.9691 106.743 76.5253 106.818 77.4656 106.888C77.4435 106.778 77.4303 106.663 77.4303 106.548C77.4303 106.434 77.4435 106.323 77.4656 106.213C76.8034 106.248 76.1368 106.27 75.457 106.27C74.7772 106.27 74.115 106.244 73.4396 106.213C73.4837 107.171 73.5279 108.155 73.5279 109.126V111.069V111.064Z" fill="white"></path><path d="M73.6956 106.469C73.7309 107.272 73.7751 108.221 73.7751 109.122V111.064C73.7751 111.956 73.7354 112.857 73.6956 113.74C73.9296 113.731 74.1636 113.722 74.3887 113.713H74.2386L74.2298 113.479C74.2165 113.161 74.2121 112.57 74.2121 111.775C74.2121 110.698 74.2121 110.407 74.221 110.133V109.912V109.665C74.221 109.55 74.221 109.378 74.221 109.175C74.221 108.879 74.2165 108.522 74.2165 108.173C74.2165 107.798 74.2298 107.493 74.243 107.197C74.2519 107.047 74.2563 106.893 74.2607 106.734L74.2695 106.495H74.3975C74.1812 106.487 73.9473 106.478 73.7 106.469H73.6956ZM75.9426 113.695C76.3841 113.704 76.8211 113.722 77.2493 113.74C77.2493 113.717 77.2493 113.691 77.2493 113.669C77.2493 113.651 77.2493 113.629 77.2493 113.612C76.8785 113.656 76.4282 113.682 75.9426 113.695ZM75.2937 109.903C75.8058 109.912 76.4326 109.934 76.9315 109.97C76.9315 109.947 76.9315 109.925 76.9315 109.903C76.9315 109.877 76.9315 109.846 76.9315 109.819C76.49 109.855 75.9868 109.89 75.2937 109.903ZM75.6071 106.513C76.128 106.531 76.5209 106.566 76.9491 106.597C77.0286 106.601 77.108 106.61 77.1919 106.615C77.1919 106.588 77.1919 106.566 77.1919 106.539C77.1919 106.513 77.1919 106.487 77.1919 106.46C76.6004 106.487 76.0883 106.504 75.6071 106.504V106.513Z" fill="white"></path><path d="M85.3411 112.495C85.2969 112.927 85.266 113.148 85.1292 113.501C85.5265 113.815 86.0562 114.146 86.9965 114.146C88.7358 114.146 89.76 112.985 89.76 111.603C89.76 109.109 86.2019 109.983 86.2019 107.873C86.2019 107.052 86.8111 106.473 87.6587 106.473C88.5063 106.473 88.8418 107.122 89.0007 107.537H89.1375C89.2214 107.109 89.3053 106.844 89.4421 106.588C88.9875 106.226 88.4886 106.058 87.7691 106.058C86.2681 106.058 85.319 106.932 85.319 108.186C85.319 110.839 88.8771 109.948 88.8771 112.027C88.8771 112.927 88.2635 113.66 87.2614 113.66C86.2593 113.66 85.7251 113.016 85.4779 112.486H85.3411V112.495Z" fill="white"></path><path d="M85.4205 113.417C85.7869 113.682 86.2505 113.903 86.9965 113.903C87.0098 113.903 87.0186 113.903 87.0318 113.903C86.2725 113.828 85.7958 113.395 85.5221 113.029C85.5 113.157 85.4691 113.28 85.425 113.413L85.4205 113.417ZM86.6478 106.526C85.9679 106.822 85.5662 107.414 85.5662 108.195C85.5662 109.44 86.4359 109.793 87.3585 110.173C88.1884 110.513 89.1287 110.897 89.1287 112.036C89.1287 112.693 88.8462 113.241 88.3827 113.572C89.089 113.183 89.5172 112.481 89.5172 111.607C89.5172 110.473 88.7138 110.151 87.7779 109.78C86.9259 109.44 85.9547 109.056 85.9547 107.877C85.9547 107.299 86.2196 106.813 86.6478 106.526ZM88.2723 106.35C88.5725 106.473 88.8197 106.694 89.0139 107.012C89.0493 106.888 89.089 106.778 89.1331 106.676C88.8771 106.504 88.6034 106.403 88.2723 106.35Z" fill="white"></path></g><defs><clipPath id="clip0_378_1584"><rect width="95" height="118.454" fill="white"></rect></clipPath></defs></svg>